<?xml version="1.0" encoding="UTF-8"?>
<svg version="1.1" xmlns="http://www.w3.org/2000/svg" width="720" height="720">
<path d="M0 0 C1.267229 0.01087646 1.267229 0.01087646 2.56005859 0.02197266 C42.3760064 0.48983582 86.42143069 10.43506595 121.75 28.75 C122.73987915 29.25587646 122.73987915 29.25587646 123.74975586 29.77197266 C125.13484173 30.48236505 126.51822658 31.19608365 127.89990234 31.91308594 C130.01712972 33.00886555 132.14279384 34.08687752 134.26953125 35.1640625 C143.99389035 40.14073086 153.05315995 45.74326531 162 52 C163.19654863 52.82301256 164.39316282 53.64592982 165.58984375 54.46875 C173.22425925 59.77033998 180.39779261 65.47293242 187.39160156 71.59643555 C188.50649761 72.56934651 189.62879715 73.53381348 190.75683594 74.49145508 C196.42001884 79.34198718 201.72189844 84.53573954 206.99072266 89.80541992 C208.49233556 91.30484672 210.0017849 92.7960681 211.51171875 94.28710938 C217.40980675 100.1502624 223.29667266 106.10798714 228 113 C228 113.66 228 114.32 228 115 C228.66 115 229.32 115 230 115 C231.69921875 117.0546875 231.69921875 117.0546875 233.6875 119.875 C234.75484375 121.38320312 234.75484375 121.38320312 235.84375 122.921875 C236.5553125 123.93765625 237.266875 124.9534375 238 126 C238.6290625 126.87140625 239.258125 127.7428125 239.90625 128.640625 C243.10378527 133.10034524 245.98184188 137.5793253 248.56640625 142.41796875 C250.01831722 145.03299096 251.57495439 147.5703845 253.1496582 150.11279297 C258.48131623 158.76568327 262.90344822 167.70547379 267 177 C267.46100098 178.03721191 267.92200195 179.07442383 268.39697266 180.14306641 C272.00722898 188.39326891 275.15843175 196.70143083 278 205.25 C278.21310822 205.88974762 278.42621643 206.52949524 278.64578247 207.18862915 C301.50261848 276.20837498 300.82877125 358.22558183 268.28125 424.359375 C267.11934197 426.75403912 266.16685794 429.12910893 265.25 431.625 C254.61064073 458.79969679 236.314012 483.13849599 217.4453125 505.125 C215.8495541 507.00116324 214.29946254 508.91742984 212.8046875 510.875 C212.20914063 511.57625 211.61359375 512.2775 211 513 C210.34 513 209.68 513 209 513 C209 513.66 209 514.32 209 515 C206.625 517.625 206.625 517.625 204 520 C203.34 520 202.68 520 202 520 C202 520.66 202 521.32 202 522 C199.625 524.625 199.625 524.625 197 527 C196.34 527 195.68 527 195 527 C195 527.66 195 528.32 195 529 C193.47162731 530.39599396 191.87349901 531.71587649 190.25 533 C189.23679687 533.80824219 188.22359375 534.61648438 187.1796875 535.44921875 C186.64956055 535.87122559 186.11943359 536.29323242 185.57324219 536.72802734 C183.12942095 538.70386668 180.7607136 540.76713059 178.375 542.8125 C162.72678178 555.85268185 145.37807929 567.22692511 127 576 C125.06208533 576.99919617 123.12459291 577.99921165 121.1875 579 C115.42901953 581.88681718 109.54071091 584.27194206 103.54296875 586.60546875 C101.17231185 587.53857185 98.81757428 588.51312814 96.48046875 589.52734375 C90.45686423 592.07605183 84.22696327 594.01609799 78 596 C77.33145996 596.21446777 76.66291992 596.42893555 75.97412109 596.64990234 C64.46555329 600.30478148 52.87937437 602.87432791 41 605 C40.2228212 605.13988846 39.4456424 605.27977692 38.64491272 605.42390442 C23.32339402 608.09825994 8.21604056 608.55487348 -7.3125 608.5 C-9.15128723 608.49935043 -9.15128723 608.49935043 -11.02722168 608.49868774 C-34.91155518 608.45256321 -56.86113702 605.95098424 -80 600 C-81.55304773 599.61841463 -83.10640924 599.23810294 -84.66015625 598.859375 C-96.09264451 596.00859701 -107.04242722 592.3203557 -118 588 C-119.15757812 587.54367187 -120.31515625 587.08734375 -121.5078125 586.6171875 C-127.09987034 584.34317932 -132.50220848 581.82883687 -137.84375 579.015625 C-139.89586389 578.04904962 -141.78575946 577.46297757 -144 577 C-144 576.34 -144 575.68 -144 575 C-144.527146 574.85377197 -145.05429199 574.70754395 -145.59741211 574.55688477 C-152.17547012 572.56806962 -157.72175509 569.51565261 -163.5625 565.9375 C-164.47580078 565.39544922 -165.38910156 564.85339844 -166.33007812 564.29492188 C-171.2902528 561.29358956 -171.2902528 561.29358956 -173 560 C-173 559.34 -173 558.68 -173 558 C-173.55558594 557.90847656 -174.11117187 557.81695313 -174.68359375 557.72265625 C-177.64012132 556.80029942 -179.58851364 555.29936603 -182.0625 553.4375 C-183.02542969 552.71820312 -183.98835937 551.99890625 -184.98046875 551.2578125 C-185.97691406 550.51273438 -186.97335938 549.76765625 -188 549 C-189.9574452 547.60292147 -191.91574727 546.20704254 -193.875 544.8125 C-197.59595343 542.10444363 -200.82267163 539.34026829 -204 536 C-205.65851936 534.49099658 -207.32614172 532.99197059 -209 531.5 C-212.44118207 528.42533436 -215.73699345 525.26300655 -219 522 C-219.94875 521.236875 -220.8975 520.47375 -221.875 519.6875 C-225.71817549 516.52539359 -228.79969138 512.79500199 -232 509 C-232.83789062 508.02675781 -233.67578125 507.05351563 -234.5390625 506.05078125 C-255.01183142 482.2189414 -272.34296381 455.80861755 -285 427 C-285.45665039 425.97511475 -285.91330078 424.95022949 -286.38378906 423.89428711 C-290.08518719 415.45483889 -293.24071302 406.9427851 -296.125 398.1875 C-296.34133087 397.53491211 -296.55766174 396.88232422 -296.7805481 396.20996094 C-300.08126892 386.22932959 -302.91651881 376.30598987 -305 366 C-305.27199219 364.77667969 -305.54398437 363.55335938 -305.82421875 362.29296875 C-320.28021325 297.20573498 -310.05997121 225.13357511 -279.06787109 166.03710938 C-277.94749676 163.89984293 -276.84267135 161.75493936 -275.73828125 159.609375 C-269.18684764 146.96322835 -261.66792604 135.26699671 -253.28613281 123.76513672 C-252.42346763 122.58118279 -251.5634693 121.39528143 -250.70605469 120.20751953 C-249.47782401 118.50801289 -248.2405947 116.81549466 -247 115.125 C-245.9171875 113.64386719 -245.9171875 113.64386719 -244.8125 112.1328125 C-244.214375 111.42898437 -243.61625 110.72515625 -243 110 C-242.34 110 -241.68 110 -241 110 C-240.74605469 109.43925781 -240.49210937 108.87851563 -240.23046875 108.30078125 C-233.46394851 95.64846245 -214.83051712 74.61017237 -201 70 C-201 69.34 -201 68.68 -201 68 C-200.34 68 -199.68 68 -199 68 C-198.505 66.515 -198.505 66.515 -198 65 C-196.44140625 63.61328125 -196.44140625 63.61328125 -194.5625 62.3125 C-193.94503906 61.87550781 -193.32757813 61.43851563 -192.69140625 60.98828125 C-191 60 -191 60 -189 60 C-189 59.34 -189 58.68 -189 58 C-184.61538462 55 -184.61538462 55 -182 55 C-182 54.34 -182 53.68 -182 53 C-179.92458998 51.48510218 -177.86447409 50.10510396 -175.6875 48.75 C-175.0473999 48.34595947 -174.4072998 47.94191895 -173.74780273 47.52563477 C-168.2865673 44.11057579 -162.69518332 41.00687032 -157 38 C-155.94167969 37.40832031 -154.88335937 36.81664062 -153.79296875 36.20703125 C-128.013833 21.86386214 -99.85218544 11.96250135 -71 6 C-69.90872803 5.77256104 -69.90872803 5.77256104 -68.79541016 5.54052734 C-45.87779751 0.83663587 -23.31317942 -0.34101192 0 0 Z " fill="#1FAC7A" transform="translate(369,58)"/>
<path d="M0 0 C75.9 0 151.8 0 230 0 C230 81.84 230 163.68 230 248 C154.1 248 78.2 248 0 248 C0 166.16 0 84.32 0 0 Z " fill="#060606" transform="translate(117,236)"/>
<path d="M0 0 C0.70914551 0.00087616 1.41829102 0.00175232 2.14892578 0.00265503 C32.0151313 0.12418203 55.1737165 8.44665536 76.8125 29.375 C77.64136719 30.15230469 78.47023438 30.92960937 79.32421875 31.73046875 C91.18167693 43.10477074 99.08016574 57.47322132 104.3125 72.9375 C104.56781494 73.68708984 104.82312988 74.43667969 105.08618164 75.20898438 C106.42560486 79.39050654 107.09337533 82.93014793 106.8125 87.375 C108.1428125 87.74625 108.1428125 87.74625 109.5 88.125 C115.76599358 90.48952588 118.86707119 94.01278982 121.7409668 99.92382812 C123.91296819 106.91936507 123.54587109 114.25823704 123.46435547 121.52441406 C123.4375547 124.36919347 123.46418094 127.21002846 123.49609375 130.0546875 C123.53249573 148.34031623 123.53249573 148.34031623 117.8125 155.375 C114.34600179 158.65455042 111.38816533 160.97413804 106.7109375 162.1640625 C103.60510378 163.10756198 103.60510378 163.10756198 102.37890625 165.9921875 C102.04761719 167.06726563 101.71632813 168.14234375 101.375 169.25 C94.05503656 190.35008509 78.50431243 206.61159363 58.64208984 216.51855469 C48.63024357 221.20517822 38.85288411 223.18787485 27.8125 223.375 C27.53019531 224.15488281 27.24789062 224.93476563 26.95703125 225.73828125 C25.20724622 229.76935598 22.39411873 231.63551184 18.47631836 233.46728516 C13.86386891 235.03900975 9.20559541 234.74394283 4.375 234.75 C3.35083984 234.77449219 2.32667969 234.79898438 1.27148438 234.82421875 C-4.89038939 234.84814836 -8.51427671 234.50552639 -13.1875 230.375 C-18.36178461 224.50148774 -18.59874256 220.62183119 -18.52734375 212.87109375 C-18.14624233 208.95056763 -17.39312123 206.82981433 -14.96484375 203.8046875 C-8.39999233 198.52394987 -3.53007894 197.74081911 4.75 197.875 C6.17602539 197.85179687 6.17602539 197.85179687 7.63085938 197.828125 C13.85759492 197.86245573 18.62083823 198.82268178 23.8125 202.375 C26.8125 205.5625 26.8125 205.5625 26.8125 208.375 C47.19031178 205.87707469 63.50229032 198.70338836 76.9140625 182.8984375 C81.58606518 176.57991405 84.73183285 169.57450783 87.8125 162.375 C87.04421875 162.0965625 86.2759375 161.818125 85.484375 161.53125 C81.60867673 159.85404724 78.7113461 157.17269219 76.8125 153.375 C76.69120923 151.59497407 76.63245418 149.81053408 76.60375977 148.02661133 C76.58446915 146.90817337 76.56517853 145.78973541 76.54530334 144.6374054 C76.4876321 139.51019132 76.43796109 134.38306171 76.4074707 129.25561523 C76.38969447 126.55200429 76.35493943 123.84944378 76.30493164 121.14624023 C76.23796457 117.24951961 76.21047278 113.35424605 76.19140625 109.45703125 C76.16357559 108.25262894 76.13574493 107.04822662 76.10707092 105.80732727 C76.13001412 96.42830677 76.13001412 96.42830677 79.66381836 92.18237305 C82.48960803 89.40049915 84.69047439 87.375 88.8125 87.375 C81.36819433 61.67531158 67.75029972 41.22471359 43.98828125 27.94140625 C30.3586853 21.21881341 17.41949801 19.02370552 2.375 19.0625 C0.50618164 19.03833008 0.50618164 19.03833008 -1.40039062 19.01367188 C-23.21258354 19.0022219 -42.85790243 29.20443315 -58.1875 44.375 C-68.3567786 55.40537282 -80.1875 71.98634777 -80.1875 87.375 C-79.115 87.931875 -78.0425 88.48875 -76.9375 89.0625 C-73.3303657 90.93543512 -71.28690277 92.85936539 -69.1875 96.375 C-68.58659681 100.55967599 -68.65133612 104.71632494 -68.69140625 108.9375 C-68.68995102 110.16154541 -68.68849579 111.38559082 -68.68699646 112.64672852 C-68.68865498 115.23228335 -68.70021076 117.8178481 -68.72094727 120.40332031 C-68.74989359 124.36045273 -68.74155537 128.31624481 -68.72851562 132.2734375 C-68.73475334 134.78646484 -68.74314453 137.29948796 -68.75390625 139.8125 C-68.75097061 140.99593994 -68.74803497 142.17937988 -68.74501038 143.39868164 C-68.76403664 145.05565063 -68.76403664 145.05565063 -68.78344727 146.74609375 C-68.78885025 147.71474365 -68.79425323 148.68339355 -68.79981995 149.68139648 C-69.43666017 154.10616649 -71.41605278 156.6806975 -74.6875 159.625 C-79.51132679 163.00167876 -84.20380227 162.65991599 -89.875 162.75 C-91.18500977 162.80607422 -91.18500977 162.80607422 -92.52148438 162.86328125 C-99.01557384 162.95058044 -103.14996268 161.49586198 -108.1875 157.375 C-113.96673854 151.29159102 -114.49648488 145.76276369 -114.48828125 137.7265625 C-114.49256638 136.79580902 -114.4968515 135.86505554 -114.50126648 134.90609741 C-114.50699821 132.94098726 -114.50751858 130.9758559 -114.50317383 129.01074219 C-114.50001814 126.01720637 -114.52347273 123.02466346 -114.54882812 120.03125 C-114.55110179 118.11718874 -114.5518043 116.20312484 -114.55078125 114.2890625 C-114.559991 113.40030426 -114.56920074 112.51154602 -114.57868958 111.59585571 C-114.52845331 104.78703417 -113.43670067 99.98893591 -108.875 94.6875 C-106.1875 92.375 -106.1875 92.375 -103.14453125 90.72265625 C-99.37797658 87.73230042 -98.92327967 85.01892609 -98.1875 80.5 C-92.93270296 54.39327625 -74.85774327 30.2929465 -52.92529297 15.47460938 C-43.73699042 9.66060057 -33.65196139 5.27860055 -23.1875 2.375 C-21.50720703 1.84132812 -21.50720703 1.84132812 -19.79296875 1.296875 C-13.32386877 -0.28500188 -6.6196448 -0.01984283 0 0 Z " fill="#E9EAE8" transform="translate(483.1875,240.625)"/>
<path d="M0 0 C0.73734375 0.00773437 1.4746875 0.01546875 2.234375 0.0234375 C3.34039062 0.01183594 3.34039062 0.01183594 4.46875 0 C9.9810554 0.0201179 9.9810554 0.0201179 12.234375 2.2734375 C12.48018208 9.09786139 10.46010997 15.7539128 8.484375 22.2109375 C7.93728667 24.0646576 7.39174402 25.91883449 6.84765625 27.7734375 C6.43894287 29.15789062 6.43894287 29.15789062 6.02197266 30.5703125 C2.90917155 41.25380098 0.25669858 52.03438358 -2.140625 62.8984375 C-4.15284777 72.01347627 -6.59635374 80.96131804 -9.17260742 89.93139648 C-11.41425267 97.81358694 -13.30530982 105.73368785 -15.0625 113.73608398 C-16.39118439 119.75091063 -17.95527466 125.64242485 -19.73046875 131.54296875 C-20.57786647 134.59679825 -21.32229113 137.63291516 -22.01953125 140.72265625 C-22.23673828 141.67970459 -22.45394531 142.63675293 -22.67773438 143.62280273 C-23.10482559 145.52755903 -23.52182731 147.43461128 -23.92773438 149.34399414 C-24.12302734 150.2127417 -24.31832031 151.08148926 -24.51953125 151.9765625 C-24.77198608 153.14687012 -24.77198608 153.14687012 -25.02954102 154.34082031 C-25.765625 156.2734375 -25.765625 156.2734375 -28.765625 158.2734375 C-32.05078125 158.5390625 -32.05078125 158.5390625 -35.828125 158.5234375 C-37.07722656 158.52859375 -38.32632813 158.53375 -39.61328125 158.5390625 C-42.765625 158.2734375 -42.765625 158.2734375 -44.765625 156.2734375 C-45.18840348 148.79025842 -42.87623188 141.43282501 -40.875 134.3125 C-39.68894819 130.07808695 -38.68811411 125.80837805 -37.703125 121.5234375 C-36.45226586 116.11883855 -35.11104022 110.76136503 -33.6171875 105.41796875 C-32.42312717 101.00870927 -31.31245019 96.57967194 -30.203125 92.1484375 C-29.99308838 91.31272217 -29.78305176 90.47700684 -29.56665039 89.6159668 C-28.37870961 84.85339993 -27.25714333 80.08230247 -26.21508789 75.28564453 C-25.61596987 72.60344422 -24.93659395 69.94416185 -24.2578125 67.28125 C-23.75848992 65.2443309 -23.32227711 63.20067822 -22.890625 61.1484375 C-22.08552867 57.46976656 -21.08384924 53.884212 -20.015625 50.2734375 C-18.0474299 43.50960285 -16.3903783 36.68972921 -14.765625 29.8359375 C-11.17577625 14.73765444 -11.17577625 14.73765444 -9.515625 8.3359375 C-9.22171875 7.19253906 -8.9278125 6.04914063 -8.625 4.87109375 C-7.00002198 -0.04077164 -4.83700548 0.0176533 0 0 Z " fill="#E8E7E6" transform="translate(240.765625,280.7265625)"/>
<path d="M0 0 C3.39344442 1.48848812 5.78229967 3.4326862 8.5 5.9375 C9.82064453 7.14792969 9.82064453 7.14792969 11.16796875 8.3828125 C12.10253906 9.24648438 13.03710938 10.11015625 14 11 C15.93742923 12.77091076 17.87493129 14.54174184 19.8125 16.3125 C21.87662141 18.20657254 23.93853305 20.10303914 26 22 C26.51433594 22.47308594 27.02867187 22.94617188 27.55859375 23.43359375 C33.344006 28.75732722 39.1109566 34.09972923 44.84936523 39.47412109 C49.99115543 44.28915407 55.12513522 49.09330236 60.484375 53.66796875 C61.23460937 54.32732422 61.23460937 54.32732422 62 55 C62.51272461 55.43626709 63.02544922 55.87253418 63.55371094 56.32202148 C65.83378506 58.96735394 65.69103824 61.20284966 65.5703125 64.59277344 C64.46128869 69.27384142 60.96336501 71.99937449 57.5 75.125 C56.45585937 76.12080078 56.45585937 76.12080078 55.390625 77.13671875 C51.97499107 80.36892049 48.46178315 83.47791581 44.90625 86.5546875 C41.09090345 89.87013736 37.5344196 93.38960362 34 97 C29.84399196 101.20428906 25.67714433 105.2745107 21.13671875 109.06640625 C19.25955674 110.76511776 17.51888451 112.51218372 15.76953125 114.33984375 C15.19017822 114.94046631 14.6108252 115.54108887 14.01391602 116.15991211 C12.85363375 117.37029929 11.70398301 118.59098402 10.56616211 119.82250977 C8.953125 121.5 8.953125 121.5 6 124 C3.88613946 123.71983809 2.5277217 123.5277217 1 122 C0.69342115 118.94732038 0.72154341 115.87867621 0.6875 112.8125 C0.65849609 111.96107422 0.62949219 111.10964844 0.59960938 110.23242188 C0.54294308 104.59630512 1.1486289 101.38510442 5 97 C6.78811491 95.35275667 8.6257699 93.78022436 10.48486328 92.21337891 C15.57704464 87.73214068 20.29777102 82.84918207 25.08422852 78.04614258 C26.95409753 76.17085437 28.82932899 74.30104535 30.70507812 72.43164062 C31.89615461 71.23990435 33.0869214 70.04785845 34.27734375 68.85546875 C34.83767807 68.29715866 35.39801239 67.73884857 35.97532654 67.16362 C38.84057333 64.34869127 38.84057333 64.34869127 41 61 C40.41081787 60.73300293 39.82163574 60.46600586 39.21459961 60.19091797 C36.961852 58.97948562 35.4101064 57.70748403 33.56640625 55.9453125 C32.92388916 55.33631104 32.28137207 54.72730957 31.61938477 54.09985352 C30.94061279 53.44815186 30.26184082 52.7964502 29.5625 52.125 C28.12538852 50.7613092 26.68788311 49.39803342 25.25 48.03515625 C24.17685547 47.01446045 24.17685547 47.01446045 23.08203125 45.97314453 C20.63376881 43.65292209 18.16854962 41.35228484 15.68798828 39.06665039 C14.60833878 38.06759353 13.53627766 37.06027029 12.47216797 36.04467773 C10.14882339 33.84746598 7.930727 31.95774154 5.1953125 30.2890625 C2.3330557 28.46114149 0.8787617 26.8254617 -1 24 C-1.51879883 21.31982422 -1.51879883 21.31982422 -1.58203125 18.4296875 C-1.60547607 17.39239502 -1.6289209 16.35510254 -1.65307617 15.28637695 C-1.53330309 1.53330309 -1.53330309 1.53330309 0 0 Z " fill="#E8E7E7" transform="translate(266,301)"/>
<path d="M0 0 C2.18457031 0.35742188 2.18457031 0.35742188 4 1 C4.0875127 4.22899426 4.14056146 7.45768116 4.1875 10.6875 C4.21263672 11.59951172 4.23777344 12.51152344 4.26367188 13.45117188 C4.35743029 22.04569321 4.35743029 22.04569321 1 26 C-1.29497036 28.34326988 -3.68941399 30.55410753 -6.125 32.75 C-7.48425455 33.9948047 -8.84233145 35.24089657 -10.19921875 36.48828125 C-11.18220947 37.39054443 -11.18220947 37.39054443 -12.18505859 38.31103516 C-14.49633131 40.46188055 -16.72462647 42.68587212 -18.9375 44.9375 C-22.20385906 48.25297724 -25.60512053 51.33026871 -29.13671875 54.359375 C-31.88966984 56.78335709 -34.43912123 59.37509926 -37 62 C-34.32205489 67.96687769 -29.27083229 71.94487201 -24.375 76.125 C-19.92802347 79.94662046 -15.84014218 84.10378155 -11.74365234 88.29345703 C-9.13764107 90.94094752 -6.56802671 93.36062062 -3.6015625 95.6015625 C-1 98 -1 98 -0.5625 100.359375 C-0.706875 101.14828125 -0.85125 101.9371875 -1 102.75 C-1.144375 103.61109375 -1.28875 104.4721875 -1.4375 105.359375 C-1.7159375 106.66648437 -1.7159375 106.66648437 -2 108 C-2.165 108.85078125 -2.33 109.7015625 -2.5 110.578125 C-3.7032967 116.40659341 -3.7032967 116.40659341 -5 119 C-9.3189841 118.52583945 -11.81672454 115.74280946 -14.8125 112.875 C-15.37219482 112.34946533 -15.93188965 111.82393066 -16.50854492 111.2824707 C-21.65550037 106.41338422 -26.66273344 101.40057631 -31.62231445 96.34130859 C-35.24869774 92.66147125 -38.99817228 89.20782172 -42.9050293 85.82836914 C-46.69496224 82.52073508 -50.36552478 79.10200229 -54 75.625 C-55.16208984 74.56925781 -55.16208984 74.56925781 -56.34765625 73.4921875 C-59.9381058 70.02205284 -62.50366776 67.45434234 -62.8125 62.3125 C-62.35845989 57.70538683 -60.44186048 55.47080386 -57 52.375 C-56.49307617 51.90682861 -55.98615234 51.43865723 -55.46386719 50.95629883 C-53.99813994 49.61287023 -52.49978668 48.30529562 -51 47 C-50.34515625 46.41863281 -49.6903125 45.83726562 -49.015625 45.23828125 C-47.80539766 44.17531609 -46.58751233 43.12102504 -45.36328125 42.07421875 C-41.99259964 39.11581886 -38.71688922 36.05892272 -35.4375 33 C-34.81198242 32.41822998 -34.18646484 31.83645996 -33.54199219 31.23706055 C-29.82531139 27.76304795 -26.19135136 24.22356464 -22.6237793 20.59643555 C-20.3073598 18.31902356 -17.85340654 16.22055263 -15.3828125 14.11328125 C-13.45111658 12.40008864 -11.59304918 10.65364633 -9.7421875 8.85546875 C-9.16678223 8.30334717 -8.59137695 7.75122559 -7.99853516 7.18237305 C-6.84527155 6.07274731 -5.70141653 4.95324779 -4.56787109 3.82348633 C-2.953125 2.28125 -2.953125 2.28125 0 0 Z " fill="#E8E7E6" transform="translate(196,301)"/>
<path d="M0 0 C0.33 0 0.66 0 1 0 C1.12445087 5.79826198 1.21473829 11.59573097 1.2746582 17.39501953 C1.29966047 19.36390747 1.333674 21.33270393 1.37719727 23.30126953 C1.82985775 44.31536677 1.82985775 44.31536677 -4 52 C-4.66 51.34 -5.32 50.68 -6 50 C-6 49.01 -6 48.02 -6 47 C-5.01 46.505 -5.01 46.505 -4 46 C-4 44.02 -4 42.04 -4 40 C-2.515 39.505 -2.515 39.505 -1 39 C-0.67 26.13 -0.34 13.26 0 0 Z " fill="#D5EDE3" transform="translate(605,344)"/>
<path d="M0 0 C0.33 0 0.66 0 1 0 C1.33 18.15 1.66 36.3 2 55 C2.66 55.33 3.32 55.66 4 56 C5.6875 58.9375 5.6875 58.9375 7 62 C6.67 62.66 6.34 63.32 6 64 C0.06066389 58.21295456 0.06066389 58.21295456 -0.12025452 54.59555054 C-0.11803391 53.58739288 -0.11581329 52.57923523 -0.11352539 51.54052734 C-0.11344986 50.39949554 -0.11337433 49.25846375 -0.11329651 48.08285522 C-0.10813522 46.84637238 -0.10297394 45.60988953 -0.09765625 44.3359375 C-0.0962413 43.07359283 -0.09482635 41.81124817 -0.09336853 40.51065063 C-0.08871078 37.15361701 -0.07972408 33.796651 -0.06866455 30.43963623 C-0.0584377 27.01445094 -0.05386818 23.58925866 -0.04882812 20.1640625 C-0.03778238 13.44268957 -0.02103194 6.72134869 0 0 Z " fill="#DBEEE6" transform="translate(560,337)"/>
<path d="M0 0 C2.26274788 0.35355436 3.95088852 0.97544426 6 2 C6 2.66 6 3.32 6 4 C6.804375 4.268125 7.60875 4.53625 8.4375 4.8125 C9.283125 5.204375 10.12875 5.59625 11 6 C11.33 6.99 11.66 7.98 12 9 C12.99 9 13.98 9 15 9 C15.33 8.01 15.66 7.02 16 6 C16.66 6.33 17.32 6.66 18 7 C17.625 9.4375 17.625 9.4375 17 12 C16.01 12.495 16.01 12.495 15 13 C12.875 12.0625 12.875 12.0625 11 11 C11 10.34 11 9.68 11 9 C10.43796875 8.89816406 9.8759375 8.79632812 9.296875 8.69140625 C6.54660512 7.86351889 4.60904126 6.56801382 2.25 4.9375 C1.45078125 4.38964844 0.6515625 3.84179688 -0.171875 3.27734375 C-0.77515625 2.85582031 -1.3784375 2.43429687 -2 2 C-1.34 1.34 -0.68 0.68 0 0 Z " fill="#209D72" transform="translate(185,607)"/>
<path d="M0 0 C0.33 0.99 0.66 1.98 1 3 C0.67 3.66 0.34 4.32 0 5 C0.66 5 1.32 5 2 5 C1.75 7.375 1.75 7.375 1 10 C-1.0625 11.3125 -1.0625 11.3125 -3 12 C-3.33 11.01 -3.66 10.02 -4 9 C-4.66 9 -5.32 9 -6 9 C-6.33 9.99 -6.66 10.98 -7 12 C-7.99 11.34 -8.98 10.68 -10 10 C-9.44570313 9.61328125 -8.89140625 9.2265625 -8.3203125 8.828125 C-7.59585938 8.30734375 -6.87140625 7.7865625 -6.125 7.25 C-5.40570312 6.73953125 -4.68640625 6.2290625 -3.9453125 5.703125 C-1.91429435 3.92496453 -1.02144988 2.47298393 0 0 Z " fill="#23AB7B" transform="translate(603,391)"/>
<path d="M0 0 C-1.44386582 3.71279784 -3.12236392 4.9486443 -6.625 6.75 C-7.44226563 7.17796875 -8.25953125 7.6059375 -9.1015625 8.046875 C-9.72804688 8.36140625 -10.35453125 8.6759375 -11 9 C-11.33 7.02 -11.66 5.04 -12 3 C-7.90170754 1.29237814 -4.46034635 0 0 0 Z " fill="#24A677" transform="translate(529,612)"/>
<path d="M0 0 C0.86625 0.495 0.86625 0.495 1.75 1 C4.19883862 2.27075898 4.19883862 2.27075898 8 2 C8.33 2.66 8.66 3.32 9 4 C8.67 4.99 8.34 5.98 8 7 C8.598125 7.061875 9.19625 7.12375 9.8125 7.1875 C12.87143458 8.3236757 13.55041099 10.17330142 15 13 C12 13 12 13 9.08203125 10.41015625 C7.98442437 9.30190591 6.89485507 8.18565055 5.8125 7.0625 C5.25369141 6.49853516 4.69488281 5.93457031 4.11914062 5.35351562 C0 1.15390339 0 1.15390339 0 0 Z M9 0 C9.99 0 10.98 0 12 0 C12 0.66 12 1.32 12 2 C11.01 2 10.02 2 9 2 C9 1.34 9 0.68 9 0 Z M15 11 C17 12 17 12 17 12 Z " fill="#31A67D" transform="translate(551,261)"/>
<path d="M0 0 C0.99 0 1.98 0 3 0 C4.33333333 2 5.66666667 4 7 6 C7.99 6 8.98 6 10 6 C9.67 7.32 9.34 8.64 9 10 C5.7 8.02 2.4 6.04 -1 4 C-0.67 2.68 -0.34 1.36 0 0 Z " fill="#28A677" transform="translate(204,618)"/>
<path d="M0 0 C0.99 0.33 1.98 0.66 3 1 C2.67 3.97 2.34 6.94 2 10 C2.66 10 3.32 10 4 10 C4 11.65 4 13.3 4 15 C1.00027651 11.21087559 -1.47510809 7.11168168 -4 3 C-2.68 3.33 -1.36 3.66 0 4 C0 2.68 0 1.36 0 0 Z " fill="#26A477" transform="translate(602,328)"/>
<path d="M0 0 C0 0.99 0 1.98 0 3 C0.99 3 1.98 3 3 3 C3 3.66 3 4.32 3 5 C0.09399739 6.25664978 -1.79604584 7 -5 7 C-5.33 7.66 -5.66 8.32 -6 9 C-6.33 7.35 -6.66 5.7 -7 4 C-4.69 2.68 -2.38 1.36 0 0 Z " fill="#17B37E" transform="translate(213,95)"/>
<path d="M0 0 C1.79639296 1.09646058 3.58697154 2.20245148 5.375 3.3125 C6.37273438 3.92738281 7.37046875 4.54226562 8.3984375 5.17578125 C11 7 11 7 13 10 C11.02 10 9.04 10 7 10 C7.33 9.01 7.66 8.02 8 7 C6.02 7 4.04 7 2 7 C1.855625 6.401875 1.71125 5.80375 1.5625 5.1875 C1.1127561 3.43849596 0.57107659 1.71322977 0 0 Z " fill="#2BB587" transform="translate(529,109)"/>
<path d="M0 0 C0.99 0.66 1.98 1.32 3 2 C0.69 2.66 -1.62 3.32 -4 4 C-4 4.66 -4 5.32 -4 6 C-12.42857143 9.42857143 -12.42857143 9.42857143 -17 9 C-13.73285958 6.82190638 -10.3249824 5.10834136 -6.8125 3.375 C-5.83120117 2.88773437 -5.83120117 2.88773437 -4.83007812 2.390625 C-3.22095188 1.5919346 -1.61059545 0.79572351 0 0 Z " fill="#D1EEE4" transform="translate(544,438)"/>
<path d="M0 0 C1.5 1.25 1.5 1.25 3 3 C3 4.32 3 5.64 3 7 C2.34 7 1.68 7 1 7 C1 7.66 1 8.32 1 9 C2.32 9.33 3.64 9.66 5 10 C4.67 10.66 4.34 11.32 4 12 C2.02 11.01 0.04 10.02 -2 9 C-1.125 1.125 -1.125 1.125 0 0 Z " fill="#2FAA7E" transform="translate(592,319)"/>
<path d="M0 0 C0.598125 0.226875 1.19625 0.45375 1.8125 0.6875 C1.4825 1.30625 1.1525 1.925 0.8125 2.5625 C-0.32943235 4.59768344 -0.32943235 4.59768344 -0.1875 6.6875 C-2.4975 6.6875 -4.8075 6.6875 -7.1875 6.6875 C-3.9375 -0.5625 -3.9375 -0.5625 0 0 Z " fill="#1AA773" transform="translate(146.1875,148.3125)"/>
<path d="M0 0 C2.9375 0.125 2.9375 0.125 6 1 C7.375 3.5625 7.375 3.5625 8 6 C7.01 6.66 6.02 7.32 5 8 C3.02 5.69 1.04 3.38 -1 1 C-0.67 0.67 -0.34 0.34 0 0 Z " fill="#29A578" transform="translate(139,566)"/>
<path d="M0 0 C-0.66 0.433125 -1.32 0.86625 -2 1.3125 C-2.66 1.869375 -3.32 2.42625 -4 3 C-4 3.99 -4 4.98 -4 6 C-6.64 5.67 -9.28 5.34 -12 5 C-11.34 4.67 -10.68 4.34 -10 4 C-10 3.34 -10 2.68 -10 2 C-6.5980513 -0.09350689 -3.94727588 -0.17942163 0 0 Z " fill="#22A276" transform="translate(303,654)"/>
<path d="M0 0 C0.99 0.33 1.98 0.66 3 1 C2.67 3.64 2.34 6.28 2 9 C1.01 9 0.02 9 -1 9 C-1.33 6.69 -1.66 4.38 -2 2 C-1.34 2 -0.68 2 0 2 C0 1.34 0 0.68 0 0 Z " fill="#219D73" transform="translate(656,407)"/>
<path d="M0 0 C0.66 0 1.32 0 2 0 C2.33 0.66 2.66 1.32 3 2 C3.99 2.33 4.98 2.66 6 3 C5.67 6.63 5.34 10.26 5 14 C2.99006295 10.98509443 2.27376659 8.7850073 1.375 5.3125 C1.11460937 4.31863281 0.85421875 3.32476562 0.5859375 2.30078125 C0.39257812 1.54152344 0.19921875 0.78226562 0 0 Z " fill="#DBEFE7" transform="translate(567,311)"/>
<path d="M0 0 C0.33 0 0.66 0 1 0 C0.67 2.97 0.34 5.94 0 9 C-0.99 9 -1.98 9 -3 9 C-3.33 9.99 -3.66 10.98 -4 12 C-6.31 12.33 -8.62 12.66 -11 13 C-10.01 12.34 -9.02 11.68 -8 11 C-3.43961522 7.64951322 -1.32762506 5.70878776 0 0 Z " fill="#33A47C" transform="translate(414,390)"/>
<path d="M0 0 C2 3 2 3 1.625 5.6875 C1.41875 6.450625 1.2125 7.21375 1 8 C0.01 8 -0.98 8 -2 8 C-2.66 6.02 -3.32 4.04 -4 2 C-2.68 1.34 -1.36 0.68 0 0 Z " fill="#15A775" transform="translate(650,276)"/>
<path d="M0 0 C5.75 1.625 5.75 1.625 8 5 C8 6.32 8 7.64 8 9 C7.01 9 6.02 9 5 9 C4.731875 8.21625 4.46375 7.4325 4.1875 6.625 C3.15185568 3.71885077 3.15185568 3.71885077 0 2 C0 1.34 0 0.68 0 0 Z " fill="#26A577" transform="translate(634,244)"/>
<path d="M0 0 C2.64 0 5.28 0 8 0 C5.03653214 2.47186455 2.45958311 3.66248361 -1.25 4.6875 C-2.14203125 4.93886719 -3.0340625 5.19023437 -3.953125 5.44921875 C-4.62859375 5.63097656 -5.3040625 5.81273437 -6 6 C-6.33 4.68 -6.66 3.36 -7 2 C-4.69 2.33 -2.38 2.66 0 3 C0 2.01 0 1.02 0 0 Z " fill="#D6EEE6" transform="translate(536,455)"/>
<path d="M0 0 C0.33 0.66 0.66 1.32 1 2 C-0.3125 4.625 -0.3125 4.625 -2 7 C-2.66 7 -3.32 7 -4 7 C-4.33 8.65 -4.66 10.3 -5 12 C-6.32 12.33 -7.64 12.66 -9 13 C-6.38888348 8.16459904 -3.62542917 4.12896099 0 0 Z " fill="#DAEDE6" transform="translate(407,278)"/>
<path d="M0 0 C0.99 0 1.98 0 3 0 C3 0.66 3 1.32 3 2 C4.65 2 6.3 2 8 2 C7.67 3.98 7.34 5.96 7 8 C3.64379729 6.61122646 1.92701272 5.08322035 0 2 C0 1.34 0 0.68 0 0 Z " fill="#25B97C" transform="translate(122,547)"/>
<path d="M0 0 C4.29718953 1.38914475 6.70687757 3.38031985 9.8125 6.625 C10.99779297 7.85089844 10.99779297 7.85089844 12.20703125 9.1015625 C12.79871094 9.72804688 13.39039063 10.35453125 14 11 C13.34 11.66 12.68 12.32 12 13 C11.38511719 12.31292969 10.77023437 11.62585938 10.13671875 10.91796875 C9.32847656 10.01691406 8.52023437 9.11585938 7.6875 8.1875 C6.88699219 7.29417969 6.08648438 6.40085937 5.26171875 5.48046875 C3.54775419 3.60073214 1.82122396 1.77407253 0 0 Z " fill="#CCEFE4" transform="translate(542,278)"/>
<path d="M0 0 C1.67542976 0.28604898 3.34385343 0.61781233 5 1 C5 1.99 5 2.98 5 4 C3.02 4.99 3.02 4.99 1 6 C0.34 4.35 -0.32 2.7 -1 1 C-0.67 0.67 -0.34 0.34 0 0 Z " fill="#1BA573" transform="translate(104,518)"/>
<path d="M0 0 C2.16874252 0.50603992 3.99967627 0.99983813 6 2 C5.34 3.32 4.68 4.64 4 6 C3.67 5.34 3.34 4.68 3 4 C2.01 4 1.02 4 0 4 C0 4.66 0 5.32 0 6 C-0.66 6 -1.32 6 -2 6 C-1.34 4.02 -0.68 2.04 0 0 Z " fill="#29A77A" transform="translate(553,422)"/>
<path d="M0 0 C0.99 0.33 1.98 0.66 3 1 C0.11658466 5.21422242 -2.04303419 6.76075855 -7 8 C-7 6 -7 6 -5.75 4.375 C-4 3 -4 3 0 3 C0 2.01 0 1.02 0 0 Z " fill="#D3EEE5" transform="translate(507,466)"/>
<path d="M0 0 C0.66 0 1.32 0 2 0 C1.34728444 3.51705958 0.48606976 6.89325077 -0.5625 10.3125 C-0.83191406 11.19550781 -1.10132813 12.07851563 -1.37890625 12.98828125 C-1.58386719 13.65214844 -1.78882813 14.31601562 -2 15 C-2.94314127 11.58389775 -3.08065117 8.54865136 -3 5 C-2.01 4.67 -1.02 4.34 0 4 C0 2.68 0 1.36 0 0 Z " fill="#28A277" transform="translate(387,307)"/>
<path d="M0 0 C0.33 1.32 0.66 2.64 1 4 C-0.43359375 6.359375 -0.43359375 6.359375 -2.4375 8.75 C-3.42556641 9.94882812 -3.42556641 9.94882812 -4.43359375 11.171875 C-4.95050781 11.77515625 -5.46742188 12.3784375 -6 13 C-6.66 12.67 -7.32 12.34 -8 12 C-5.36 8.04 -2.72 4.08 0 0 Z " fill="#33A17A" transform="translate(419,291)"/>
<path d="M0 0 C0.66 0.33 1.32 0.66 2 1 C1.25 5.75 1.25 5.75 -1 8 C-5 3.25 -5 3.25 -5 1 C-4.34 1 -3.68 1 -3 1 C-3 1.99 -3 2.98 -3 4 C-2.34 4 -1.68 4 -1 4 C-0.67 2.68 -0.34 1.36 0 0 Z " fill="#DAEEE7" transform="translate(471,463)"/>
<path d="M0 0 C0.99 0.66 1.98 1.32 3 2 C3.66 2 4.32 2 5 2 C4.34 3.65 3.68 5.3 3 7 C0.525 6.01 0.525 6.01 -2 5 C-1.34 3.35 -0.68 1.7 0 0 Z " fill="#18B280" transform="translate(115,182)"/>
<path d="M0 0 C0 0.99 0 1.98 0 3 C-2.31 3.66 -4.62 4.32 -7 5 C-7.33 3.68 -7.66 2.36 -8 1 C-5.29120665 -0.35439668 -2.99066732 -0.06501451 0 0 Z " fill="#2EA97C" transform="translate(453,649)"/>
<path d="M0 0 C-1.8125 2.5 -1.8125 2.5 -4 5 C-4.99 5 -5.98 5 -7 5 C-6.625 2.5625 -6.625 2.5625 -6 0 C-3.50907189 -1.24546405 -2.58919267 -0.7767578 0 0 Z " fill="#1EA66C" transform="translate(618,521)"/>
<path d="M0 0 C1.98 0.66 3.96 1.32 6 2 C6 3.98 6 5.96 6 8 C5.34 8 4.68 8 4 8 C2.68 5.36 1.36 2.72 0 0 Z " fill="#2BA67D" transform="translate(98,511)"/>
<path d="M0 0 C0.33 0 0.66 0 1 0 C1 1.98 1 3.96 1 6 C1.66 6 2.32 6 3 6 C2.67 6.99 2.34 7.98 2 9 C0.35 9.33 -1.3 9.66 -3 10 C-2.01 6.7 -1.02 3.4 0 0 Z " fill="#D2EAE0" transform="translate(389,307)"/>
<path d="M0 0 C0.99 0.33 1.98 0.66 3 1 C3 1.99 3 2.98 3 4 C2.34 4 1.68 4 1 4 C0.67 4.99 0.34 5.98 0 7 C-0.99 7.66 -1.98 8.32 -3 9 C-2.01 6.03 -1.02 3.06 0 0 Z " fill="#30AA7F" transform="translate(408,308)"/>
<path d="M0 0 C0.99 0 1.98 0 3 0 C3.66 1.98 4.32 3.96 5 6 C3.68 5.67 2.36 5.34 1 5 C0.67 5.66 0.34 6.32 0 7 C-0.38133299 5.0085944 -0.71325582 3.00720923 -1 1 C-0.67 0.67 -0.34 0.34 0 0 Z " fill="#26A677" transform="translate(633,235)"/>
<path d="M0 0 C0.33 0.99 0.66 1.98 1 3 C-1.3125 6.1875 -1.3125 6.1875 -4 9 C-4.66 9 -5.32 9 -6 9 C-6.33 9.99 -6.66 10.98 -7 12 C-7.99 11.34 -8.98 10.68 -10 10 C-9.44570313 9.61328125 -8.89140625 9.2265625 -8.3203125 8.828125 C-7.59585938 8.30734375 -6.87140625 7.7865625 -6.125 7.25 C-5.40570312 6.73953125 -4.68640625 6.2290625 -3.9453125 5.703125 C-1.91429435 3.92496453 -1.02144988 2.47298393 0 0 Z " fill="#37A981" transform="translate(603,391)"/>
<path d="M0 0 C0.33 0 0.66 0 1 0 C1.4025937 3.52269485 1.13372795 4.79940808 -0.875 7.8125 C-1.57625 8.534375 -2.2775 9.25625 -3 10 C-3.66 10 -4.32 10 -5 10 C-3.66654496 6.40992874 -2.1056769 3.20429093 0 0 Z " fill="#D4EEE6" transform="translate(397,292)"/>
<path d="M0 0 C-4.95 2.475 -4.95 2.475 -10 5 C-9.67 3.35 -9.34 1.7 -9 0 C-3.375 -1.125 -3.375 -1.125 0 0 Z " fill="#D7EDE6" transform="translate(450,267)"/>
<path d="M0 0 C0.66 1.32 1.32 2.64 2 4 C0.68 5.32 -0.64 6.64 -2 8 C-2.66 7.67 -3.32 7.34 -4 7 C-2.92598892 4.08482708 -2.22189824 2.22189824 0 0 Z " fill="#D2ECE3" transform="translate(375,334)"/>
<path d="M0 0 C2.0625 0.4375 2.0625 0.4375 4 1 C4.33 2.32 4.66 3.64 5 5 C3.35 5 1.7 5 0 5 C-0.5625 3.0625 -0.5625 3.0625 -1 1 C-0.67 0.67 -0.34 0.34 0 0 Z " fill="#2DAB7D" transform="translate(623,215)"/>
<path d="M0 0 C0.33 0.66 0.66 1.32 1 2 C1.66 2 2.32 2 3 2 C2.67 3.65 2.34 5.3 2 7 C1.34 7 0.68 7 0 7 C-0.66 5.35 -1.32 3.7 -2 2 C-1.34 1.34 -0.68 0.68 0 0 Z " fill="#30B084" transform="translate(108,522)"/>
<path d="M0 0 C0.99 0 1.98 0 3 0 C2.4375 1.875 2.4375 1.875 1 4 C-2.625 5.25 -2.625 5.25 -6 6 C-4 4 -2 2 0 0 Z " fill="#D2EFE5" transform="translate(569,328)"/>
<path d="M0 0 C0.33 0 0.66 0 1 0 C1 1.65 1 3.3 1 5 C-2 6 -2 6 -6 6 C-4 4 -2 2 0 0 Z " fill="#DBEBE5" transform="translate(424,261)"/>
<path d="M0 0 C1.32 0 2.64 0 4 0 C4.33 1.65 4.66 3.3 5 5 C2.69 4.34 0.38 3.68 -2 3 C-1.34 2.01 -0.68 1.02 0 0 Z " fill="#20B26C" transform="translate(260,646)"/>
<path d="M0 0 C0.99 0.33 1.98 0.66 3 1 C2.60196439 3.88575819 2.20990931 4.82189513 -0.0625 6.75 C-0.701875 7.1625 -1.34125 7.575 -2 8 C-2.33 6.35 -2.66 4.7 -3 3 C-2.01 2.34 -1.02 1.68 0 1 C0 0.67 0 0.34 0 0 Z " fill="#27A26C" transform="translate(562,582)"/>
<path d="M0 0 C1.65 0 3.3 0 5 0 C4.34 1.98 3.68 3.96 3 6 C2.01 5.67 1.02 5.34 0 5 C0 3.35 0 1.7 0 0 Z " fill="#27B287" transform="translate(623,501)"/>
<path d="M0 0 C2.475 0.99 2.475 0.99 5 2 C4.01 2.33 3.02 2.66 2 3 C1.01 4.485 1.01 4.485 0 6 C-0.99 6 -1.98 6 -3 6 C-3 5.01 -3 4.02 -3 3 C-2.01 3 -1.02 3 0 3 C0 2.01 0 1.02 0 0 Z " fill="#DCEEE7" transform="translate(502,441)"/>
<path d="M0 0 C0.99 0 1.98 0 3 0 C3.33 1.98 3.66 3.96 4 6 C2.68 5.67 1.36 5.34 0 5 C-0.5625 3.0625 -0.5625 3.0625 -1 1 C-0.67 0.67 -0.34 0.34 0 0 Z " fill="#31A87E" transform="translate(568,322)"/>
<path d="M0 0 C-0.33 1.32 -0.66 2.64 -1 4 C-3.31 3.34 -5.62 2.68 -8 2 C-5.14066998 -0.85933002 -3.8625627 -1.2875209 0 0 Z " fill="#D5EBE3" transform="translate(451,248)"/>
<path d="M0 0 C0.99 0 1.98 0 3 0 C3 1.98 3 3.96 3 6 C2.01 6 1.02 6 0 6 C0 5.34 0 4.68 0 4 C-0.66 3.34 -1.32 2.68 -2 2 C-1.34 1.34 -0.68 0.68 0 0 Z " fill="#35B086" transform="translate(147,145)"/>
<path d="M0 0 C1.98 0 3.96 0 6 0 C6 0.66 6 1.32 6 2 C5.34 2 4.68 2 4 2 C3.67 2.99 3.34 3.98 3 5 C2.01 4.67 1.02 4.34 0 4 C0 2.68 0 1.36 0 0 Z " fill="#15A976" transform="translate(261,74)"/>
<path d="M0 0 C2.97 0.495 2.97 0.495 6 1 C5.67 1.66 5.34 2.32 5 3 C1.9375 3.625 1.9375 3.625 -1 4 C-0.67 2.68 -0.34 1.36 0 0 Z " fill="#23B285" transform="translate(479,637)"/>
<path d="M0 0 C2.31 0.66 4.62 1.32 7 2 C5.35 3.32 3.7 4.64 2 6 C0 2.25 0 2.25 0 0 Z " fill="#31A87D" transform="translate(517,615)"/>
<path d="M0 0 C0 3.52032428 -0.70351351 4.4385343 -3 7 C-3.66 7 -4.32 7 -5 7 C-5.33 7.66 -5.66 8.32 -6 9 C-6 6 -6 6 -4.6875 4.39453125 C-4.130625 3.87246094 -3.57375 3.35039062 -3 2.8125 C-2.443125 2.28269531 -1.88625 1.75289063 -1.3125 1.20703125 C-0.6628125 0.60955078 -0.6628125 0.60955078 0 0 Z " fill="#DADADA" transform="translate(188,308)"/>
<path d="M0 0 C0.66 1.32 1.32 2.64 2 4 C0.68 3.67 -0.64 3.34 -2 3 C-2 3.66 -2 4.32 -2 5 C-2.99 4.67 -3.98 4.34 -5 4 C-5 3.34 -5 2.68 -5 2 C-2 0 -2 0 0 0 Z " fill="#1CA072" transform="translate(203,102)"/>
<path d="M0 0 C0.99 0 1.98 0 3 0 C3.33 1.32 3.66 2.64 4 4 C2.02 4 0.04 4 -2 4 C-2 3.34 -2 2.68 -2 2 C-1.34 2 -0.68 2 0 2 C0 1.34 0 0.68 0 0 Z " fill="#29B579" transform="translate(416,657)"/>
<path d="M0 0 C0.33 0 0.66 0 1 0 C1.22142255 1.95689659 1.4267568 3.91561952 1.625 5.875 C1.74101562 6.96554687 1.85703125 8.05609375 1.9765625 9.1796875 C1.98429687 10.11039062 1.99203125 11.04109375 2 12 C1.34 12.66 0.68 13.32 0 14 C-1.10370043 10.6888987 -0.92673641 8.75251051 -0.5625 5.3125 C-0.46066406 4.31863281 -0.35882813 3.32476562 -0.25390625 2.30078125 C-0.17011719 1.54152344 -0.08632813 0.78226562 0 0 Z " fill="#43AC88" transform="translate(464,453)"/>
<path d="M0 0 C1.04059132 3.12177395 1.32284898 4.07083439 0 7 C-2.5625 8.25 -2.5625 8.25 -5 9 C-3.35 6.03 -1.7 3.06 0 0 Z " fill="#D3F1E7" transform="translate(566,414)"/>
<path d="M0 0 C1.65 1.65 3.3 3.3 5 5 C4.67 5.66 4.34 6.32 4 7 C2.35 5.35 0.7 3.7 -1 2 C-0.67 1.34 -0.34 0.68 0 0 Z " fill="#D6EBE4" transform="translate(562,394)"/>
<path d="M0 0 C0.33 0.99 0.66 1.98 1 3 C1.66 3 2.32 3 3 3 C3.33 4.65 3.66 6.3 4 8 C3.01 8 2.02 8 1 8 C0.67 5.36 0.34 2.72 0 0 Z " fill="#F4E4E8" transform="translate(598,382)"/>
</svg>
